{
  "asset": {
    "version": "2.0",
    "generator": "THREE.GLTFExporter"
  },
  "scenes": [
    {
      "nodes": [
        0
      ]
    }
  ],
  "scene": 0,
  "nodes": [
    {
      "children": [
        6
      ],
      "matrix": [
        0.01,
        0,
        0,
        0,
        0,
        0.01,
        0,
        0,
        0,
        0,
        0.01,
        0,
        0,
        0,
        0,
        1
      ]
    },
    {
      "name": "geometry_0",
      "mesh": 0
    },
    {
      "matrix": [
        1000,
        0,
        0,
        0,
        0,
        -2.220446049250313e-13,
        -1000,
        0,
        0,
        1000,
        -2.220446049250313e-13,
        0,
        0,
        0,
        0,
        1
      ],
      "name": "drone_hydrofoil_unity",
      "children": [
        1
      ]
    },
    {
      "matrix": [
        0.5883484054145521,
        0.39223227027636803,
        -0.7071067811865475,
        0,
        -0.554700196225229,
        0.8320502943378437,
        0,
        0,
        0.588348405414552,
        0.392232270276368,
        0.7071067811865476,
        0,
        0,
        0,
        0,
        1
      ],
      "name": "Directional Light",
      "extensions": {
        "KHR_lights_punctual": {
          "light": 0
        }
      }
    },
    {
      "matrix": [
        -0.07932638113077273,
        2.854514821737375e-8,
        -0.9968486972739116,
        0,
        -0.286475757406248,
        0.9578162346570736,
        0.022796952556478928,
        0,
        0.9547978663964493,
        0.28738138531809077,
        -0.07598008750615559,
        0,
        11835.786624808885,
        1729.9411125833035,
        -945.1732088270052,
        1
      ],
      "camera": 0
    },
    {
      "matrix": [
        1,
        0,
        0,
        0,
        0,
        1,
        0,
        0,
        0,
        0,
        1,
        0,
        0,
        1,
        0,
        1
      ],
      "name": "Default Ambient Light"
    },
    {
      "name": "Scene 1",
      "children": [
        2,
        3,
        4,
        5
      ]
    }
  ],
  "bufferViews": [
    {
      "buffer": 0,
      "byteOffset": 0,
      "byteLength": 189648,
      "target": 34962,
      "byteStride": 12
    },
    {
      "buffer": 0,
      "byteOffset": 189648,
      "byteLength": 189648,
      "target": 34962,
      "byteStride": 12
    }
  ],
  "buffers": [
    {
      "byteLength": 379296,
      "uri": "data:application/octet-stream;base64,"
    }
  ],
  "accessors": [
    {
      "bufferView": 0,
      "componentType": 5126,
      "count": 15804,
      "max": [
        4.599999904632568,
        1.0199999809265137,
        0.949999988079071
      ],
      "min": [
        -0.4000000059604645,
        -1.0199999809265137,
        -0.15000000596046448
      ],
      "type": "VEC3"
    },
    {
      "bufferView": 1,
      "componentType": 5126,
      "count": 15804,
      "max": [
        1,
        1,
        1
      ],
      "min": [
        -1,
        -1,
        -1
      ],
      "type": "VEC3"
    }
  ],
  "meshes": [
    {
      "primitives": [
        {
          "mode": 4,
          "attributes": {
            "POSITION": 0,
            "NORMAL": 1
          },
          "extras": {
            "parameters": {
              "width": 4.999999910593033,
              "height": 2.0399999618530273,
              "depth": 1.0999999940395355,
              "subdivisions": 0
            },
            "type": "NonParametricGeometry"
          }
        }
      ]
    }
  ],
  "extensions": {
    "KHR_lights_punctual": {
      "lights": [
        {
          "name": "Directional Light",
          "color": [
            1,
            1,
            1
          ],
          "intensity": 0.7,
          "type": "directional"
        }
      ]
    }
  },
  "cameras": [
    {
      "type": "perspective",
      "perspective": {
        "aspectRatio": 2.1880341880341883,
        "yfov": 0.7853981633974483,
        "zfar": 100000,
        "znear": 70
      }
    }
  ],
  "extensionsUsed": [
    "KHR_lights_punctual"
  ]
}